<?xml version="1.0" standalone="no"?>
<!DOCTYPE svg PUBLIC "-//W3C//DTD SVG 20010904//EN"
 "http://www.w3.org/TR/2001/REC-SVG-20010904/DTD/svg10.dtd">
<svg version="1.0" xmlns="http://www.w3.org/2000/svg"
 width="134.000000pt" height="134.000000pt" viewBox="0 0 134.000000 134.000000"
 preserveAspectRatio="xMidYMid meet">
<metadata>
Created by potrace 1.14, written by Peter Selinger 2001-2017
</metadata>
<g transform="translate(0.000000,134.000000) scale(0.100000,-0.100000)"
fill="#000000" stroke="none">
<path d="M579 1336 c-2 -2 -17 -7 -34 -9 -55 -10 -70 -15 -132 -40 -240 -98
-401 -331 -408 -592 -6 -197 53 -352 184 -485 94 -95 149 -131 261 -171 71
-26 126 -34 225 -34 190 0 330 59 466 195 126 127 188 265 195 438 5 122 -16
224 -69 332 -33 67 -59 102 -127 170 -89 89 -173 140 -290 175 -50 15 -260 31
-271 21z"/>
</g>
</svg>
